# xmcd
#
# Track frame offsets:
#	150
#	10841
#	21728
#	33676
#	56612
#	68364
#	81710
#	92491
#	104025
#	116322
#	127301
#	139338
#	152230
#	165252
#	175286
#	187135
#	200519
#	217337
#	235688
#	249396
#
# Disc length: 3554 seconds
#
# Revision: 1
# Processed by: cddbd v1.5.2PL0 Copyright (c) Steve Scherf et al.
# Submitted via: audiograbber 1.83.01
#
DISCID=2a0de014
DTITLE=The Greatest Country Music Recordings Of All Time - Record 5 and 6
DYEAR=1900
DGENRE=
TTITLE0=Jim Reeves - He'll Have To Go
TTITLE1=Ray Price - That's All That Matters
TTITLE2=Eddy Arnold - I Really Don't Want To Know
TTITLE3=Ray Price - Danny Boy
TTITLE4=Jim Reeves - Welcome To My World
TTITLE5=Eddy Arnold - Anytime
TTITLE6=Jan Howard - Evil On Your Mind
TTITLE7=Jim Reeves - Am I That Easy To Forget
TTITLE8=Eddy Arnold - Make The World Go Away
TTITLE9=Faron Young - Hello Walls
TTITLE10=Don Gibson - I Can't Stop Loving You
TTITLE11=Jim Reeves - Four Walls
TTITLE12=Bill Anderson - Still
TTITLE13=Eddy Arnold - What's He Doing In My World
TTITLE14=Jack Greene - There Goes My Everything
TTITLE15=David Houston - Almost Persuaded
TTITLE16=Ray Price - I Won't Mention It Again
TTITLE17=Dotty West - Six Weeks Every Summer (And Christmas Every Other Year)
TTITLE18=Faron Young - It's Four In The Morning
TTITLE19=Ray Price - For The Good Times
EXTD=
EXTT0=
EXTT1=
EXTT2=
EXTT3=
EXTT4=
EXTT5=
EXTT6=
EXTT7=
EXTT8=
EXTT9=
EXTT10=
EXTT11=
EXTT12=
EXTT13=
EXTT14=
EXTT15=
EXTT16=
EXTT17=
EXTT18=
EXTT19=
PLAYORDER=
